<svg width="9" height="9" viewBox="0 0 9 9" fill="none" xmlns="http://www.w3.org/2000/svg">
<path d="M8.07809 2.09204L8.07803 2.09213L3.65748 7.98707C3.65746 7.9871 3.65744 7.98713 3.65741 7.98716C3.53649 8.14851 3.36032 8.25 3.16339 8.25C2.96643 8.25 2.79022 8.14848 2.6693 7.98707L0.921905 5.65467C0.692698 5.34872 0.692698 4.8815 0.921905 4.57555C1.04204 4.4152 1.21685 4.31262 1.41391 4.31262C1.61097 4.31262 1.78578 4.4152 1.90592 4.57555L3.16548 6.2568L7.09408 1.01293C7.21422 0.852573 7.38903 0.75 7.58609 0.75C7.78315 0.75 7.95796 0.852573 8.07809 1.01293M8.07809 2.09204V1.01293L7.88075 1.16077L8.07809 1.01293M8.07809 2.09204C8.3073 1.7861 8.3073 1.31887 8.07809 1.01293M8.07809 2.09204L8.07809 1.01293" fill="white" stroke="white" stroke-width="0.5"/>
</svg>
