<svg width="22" height="22" viewBox="0 0 22 22" fill="none" xmlns="http://www.w3.org/2000/svg">
<circle cx="11" cy="11" r="10.5" fill="white" stroke="#276075"/>
<path fill-rule="evenodd" clip-rule="evenodd" d="M11 3C15.4176 3 19 6.5824 19 10.9999C19 15.4175 15.4176 18.9999 11 18.9999C6.58242 19.0219 3 15.4175 3 10.9999C3 6.5824 6.58242 3 11 3C11.022 3 11.022 3 11 3Z" fill="#276075"/>
<path fill-rule="evenodd" clip-rule="evenodd" d="M18.7142 11.0004C18.7142 15.2641 15.2637 18.7146 10.9999 18.7146C6.73619 18.7146 3.28564 15.2641 3.28564 11.0004C3.28564 6.75864 6.73619 3.28613 10.9999 3.28613C15.2637 3.28613 18.7142 6.73666 18.7142 11.0004Z" fill="white"/>
<path fill-rule="evenodd" clip-rule="evenodd" d="M18.1865 11.0233C18.1865 13.8804 16.4942 16.4518 13.8788 17.5947V12.4518H13.8568C13.8788 11.309 13.4392 10.1881 12.626 9.37494C11.8128 8.56176 10.692 8.1222 9.5491 8.14418V8.1222H4.42822C5.57108 5.50683 8.14251 3.81454 10.9997 3.83652C14.9557 3.83652 18.1865 7.04529 18.1865 11.0233Z" fill="#276075"/>
<path fill-rule="evenodd" clip-rule="evenodd" d="M10.9998 12.4504V18.1867C7.04376 18.1867 3.81299 14.9779 3.81299 10.9999H9.54925C10.2965 10.9559 10.9339 11.5054 10.9778 12.2526C11.0218 12.3186 11.0218 12.3845 10.9998 12.4504Z" fill="#CF4238"/>
</svg>
