<svg width="220" height="48" viewBox="0 0 220 48" fill="none" xmlns="http://www.w3.org/2000/svg">
<rect width="220" height="48" fill="white"/>
<path fill-rule="evenodd" clip-rule="evenodd" d="M202 33.2662V33.8506C202 36.1299 199.873 38 197.215 38H57.7855C55.186 38 53 36.1299 53 33.8506V33.3247C53 33.2078 53 33.0909 53 32.974V29H201.941L202 33.2662Z" fill="#CF4238"/>
<path fill-rule="evenodd" clip-rule="evenodd" d="M72.593 15.9478C72.6519 10.1003 77.4286 5.37502 83.2667 5.37502C89.1048 5.37502 93.8814 10.1003 93.9404 16.0068C93.9404 21.9134 89.1637 26.6386 83.2667 26.6386H83.2077C77.3696 26.6386 72.593 21.8543 72.593 16.0068V15.9478ZM158.455 26.2252H152.675V10.3956H146.248V26.2252H140.468V5.84756H158.455V26.2252ZM62.2143 13.4669H59.0299V10.0411H62.0963C62.5681 10.0411 63.0988 10.1002 63.5706 10.1592C64.3372 10.2774 64.9269 10.9271 64.868 11.6949C64.868 12.2265 64.6911 12.699 64.2783 12.9944C63.6296 13.3488 62.9219 13.526 62.2143 13.4669ZM59.0299 17.7197H60.0913H62.1553C62.804 17.6606 63.4527 17.7787 64.1013 18.015C64.868 18.3103 65.2808 19.0782 65.2218 19.846C65.2218 20.4367 64.9269 21.0273 64.4552 21.3817C63.8065 21.7952 62.9809 22.0314 62.2143 21.9724H59.0299V17.7197ZM170.366 12.5219L168.597 18.5466H172.195L170.366 12.5219ZM160.518 26.2252H166.298L167.3 22.7994H173.433L174.435 26.2252H180.215L173.138 5.84756H167.654L160.518 26.2252ZM195.252 21.6181V20.7322V13.2308C195.252 10.3321 193.06 10.3605 190.802 10.3898C190.575 10.3927 190.348 10.3957 190.122 10.3957H189.591V21.6181H195.252ZM200.972 21.6771V13.6442C200.972 7.73765 196.373 5.84756 191.478 5.84756H183.812V21.6771H183.104V26.2252H201.503V21.6771H200.972ZM108.211 21.6181V20.7322L108.27 13.2308C108.27 10.3321 106.079 10.3605 103.82 10.3898C103.593 10.3927 103.366 10.3957 103.14 10.3957H102.609V21.6181H108.211ZM113.991 21.6771V13.6442C113.991 7.73765 109.391 5.84756 104.555 5.84756H96.889V21.6771H96.3583V26.2252H114.639V21.6771H113.991ZM83.2668 10.5729C86.2743 10.5729 88.7511 12.9946 88.7511 16.066C88.7511 19.0784 86.2743 21.5591 83.2668 21.5591C80.2593 21.5591 77.7825 19.1374 77.7825 16.066C77.7825 12.9946 80.2593 10.5729 83.2668 10.5729ZM116.703 16.0068C116.703 10.1003 121.48 5.37502 127.377 5.37502C133.274 5.37502 138.051 10.1003 138.051 16.0068C138.051 21.9134 133.274 26.6386 127.377 26.6386C121.48 26.6386 116.703 21.9134 116.703 16.0068ZM127.377 10.5729C130.384 10.5729 132.861 12.9946 132.861 16.066C132.861 19.0784 130.384 21.5591 127.377 21.5591C124.369 21.5591 121.893 19.1374 121.893 16.066C121.893 12.9946 124.369 10.5729 127.377 10.5729ZM69.4087 24.4532C70.5291 23.5082 71.1778 22.0315 71.1188 20.5549C71.2367 19.4917 70.9419 18.4285 70.4701 17.4835C69.7035 16.4203 68.701 15.6524 67.4626 15.239C68.2292 14.9437 68.8779 14.4121 69.4087 13.7623C69.9984 13.0536 70.2932 12.1085 70.2932 11.1635C70.2932 9.86401 69.8214 8.6827 68.9959 7.73765C67.8164 6.43821 66.0473 5.84756 63.6885 5.84756H53.2507V26.1661H63.6885C66.2242 26.1661 68.1113 25.6345 69.4087 24.4532Z" fill="#276075"/>
<path fill-rule="evenodd" clip-rule="evenodd" d="M69 36V32H71V32.96H69.9583V36H69Z" fill="white"/>
<path fill-rule="evenodd" clip-rule="evenodd" d="M76.8389 36.0301V34.3763L77.6056 34.4353C78.0183 34.4353 78.4311 34.3172 78.785 34.0219C79.0798 33.7856 79.2567 33.4312 79.2567 33.0178C79.2567 32.7224 79.1388 32.4862 79.0208 32.2499C78.9029 32.0727 78.667 31.8955 78.4311 31.7774C78.0773 31.6592 77.7235 31.6002 77.3697 31.6002H75.4826V36.0301H76.8389ZM77.3109 33.4313H76.8391L76.8981 32.6044H77.3699C77.7237 32.6044 77.9006 32.7225 77.9006 33.0178C77.9006 33.3131 77.7237 33.4313 77.3109 33.4313Z" fill="white"/>
<path fill-rule="evenodd" clip-rule="evenodd" d="M84.6571 34.7733L83 32H84.4857L85.2286 33.5467L85.8571 32H87L85.7429 34.9333C85.6286 35.1467 85.5143 35.36 85.3429 35.5733C85.2286 35.7333 85.0571 35.84 84.8857 35.8933C84.6571 36 84.4286 36 84.2 36H83.5143V35.0933H83.9714C84.3714 35.0933 84.6 34.9867 84.6571 34.7733Z" fill="white"/>
<path fill-rule="evenodd" clip-rule="evenodd" d="M91 36V32H95V36H93.5806V32.8533H92.4839V36H91Z" fill="white"/>
<path fill-rule="evenodd" clip-rule="evenodd" d="M99 36V32H103V36H101.581V32.8533H100.484V36H99Z" fill="white"/>
<path fill-rule="evenodd" clip-rule="evenodd" d="M109.627 35.1441L109.862 36.0301H111.219L109.803 31.6002H108.388L107.032 36.0301H108.152L108.447 35.1441H109.627ZM109.037 32.8997L109.391 34.1991H108.683L109.037 32.8997Z" fill="white"/>
<path fill-rule="evenodd" clip-rule="evenodd" d="M127 36H125.897L125.324 34.5067L124.971 35.0933V36H124V32H124.971V33.6533L125.897 32H126.824L125.985 33.4933L127 36Z" fill="white"/>
<path fill-rule="evenodd" clip-rule="evenodd" d="M131.918 35.4394C132.33 35.9119 132.861 36.0891 133.451 36.0891C134.041 36.0891 134.571 35.8529 134.984 35.4394C135.397 34.9669 135.633 34.3172 135.574 33.7265C135.574 33.1359 135.397 32.5452 134.984 32.0727C134.63 31.6592 134.1 31.482 133.51 31.482C132.861 31.423 132.33 31.6592 131.918 32.1317C131.505 32.6043 131.328 33.1949 131.328 33.7856C131.328 34.3762 131.505 34.9669 131.918 35.4394ZM133.923 34.7897C133.864 34.9669 133.687 35.085 133.451 35.085C132.979 35.085 132.861 34.6125 132.861 33.7856C132.861 32.9587 133.097 32.4862 133.51 32.4862C133.923 32.4862 134.1 32.8996 134.1 33.6675C134.1 34.0809 134.041 34.4353 133.923 34.7897Z" fill="white"/>
<path fill-rule="evenodd" clip-rule="evenodd" d="M145 32V36H143.72V33.1579L142.866 36H141.951L141.037 33.1579V36H140V32.0526H141.829L142.5 34.1579L143.11 32.0526H145V32Z" fill="white"/>
<path fill-rule="evenodd" clip-rule="evenodd" d="M149 36V32H153V36H151.581V32.8533H150.484V36H149Z" fill="white"/>
<path fill-rule="evenodd" clip-rule="evenodd" d="M159.87 35.1441L160.105 36.0301H161.403L160.046 31.6002H158.631L157.275 36.0301H158.395L158.69 35.1441H159.87ZM159.28 32.8997L159.634 34.1991H158.926L159.28 32.8997Z" fill="white"/>
<path fill-rule="evenodd" clip-rule="evenodd" d="M169 32V36H167.922V34.4211H167.078V36H166V32.0526H167.078V33.5263H167.922V32.0526H169V32Z" fill="white"/>
<path fill-rule="evenodd" clip-rule="evenodd" d="M175.397 35.5733V36H174V32H175.397V33.6C175.397 33.8133 175.397 34.08 175.333 34.3467C175.46 34.08 175.651 33.76 175.841 33.4933L176.603 32.4267V32H178V36H176.667V34.4C176.667 34.1867 176.667 33.92 176.73 33.6533C176.603 33.92 176.413 34.24 176.222 34.5067L175.397 35.5733Z" fill="white"/>
<path fill-rule="evenodd" clip-rule="evenodd" d="M185.286 30.1236H184.696C184.578 30.3598 184.342 30.537 184.107 30.5961C183.812 30.537 183.576 30.3598 183.517 30.1236H182.927C182.986 30.4189 183.163 30.7142 183.399 30.8914C183.576 31.0686 183.871 31.1277 184.107 31.1277C184.342 31.1277 184.637 31.0686 184.814 30.8914C185.05 30.7142 185.227 30.4189 185.286 30.1236ZM183.517 36.0301V35.5576L184.225 34.3763C184.401 34.0809 184.578 33.7265 184.696 33.4312C184.637 33.7265 184.637 34.0219 184.637 34.2581V36.0301H185.935V31.6002H184.637V32.0727L183.93 33.254C183.814 33.447 183.724 33.6399 183.626 33.8493C183.573 33.9604 183.519 34.0762 183.458 34.1991C183.517 33.9037 183.517 33.6084 183.517 33.3721V31.6002H182.22V36.0301H183.517Z" fill="white"/>
<path fill-rule="evenodd" clip-rule="evenodd" d="M21.4653 0C33.3185 0 42.9307 9.62769 42.9307 21.4999C42.9307 33.372 33.3185 42.9997 21.4653 42.9997C9.61223 43.0588 0 33.372 0 21.4999C0 9.62769 9.61223 0 21.4653 0C21.5243 0 21.5243 0 21.4653 0Z" fill="#276075"/>
<path fill-rule="evenodd" clip-rule="evenodd" d="M42.1641 21.4998C42.1641 32.9585 32.9057 42.2318 21.4654 42.2318C10.0251 42.2318 0.766663 32.9585 0.766663 21.4998C0.766663 10.1001 10.0251 0.767765 21.4654 0.767765C32.9057 0.767765 42.1641 10.0411 42.1641 21.4998Z" fill="white"/>
<path fill-rule="evenodd" clip-rule="evenodd" d="M40.7488 21.559C40.7488 29.2375 36.208 36.1482 29.1905 39.2196V25.3983H29.1315C29.1905 22.3269 28.0111 19.3145 25.8292 17.1291C23.6472 14.9437 20.6397 13.7624 17.5733 13.8214V13.7624H3.83307C6.89955 6.73355 13.7991 2.1855 21.4653 2.24457C32.0801 2.24457 40.7488 10.8681 40.7488 21.559Z" fill="#276075"/>
<path fill-rule="evenodd" clip-rule="evenodd" d="M21.4654 25.3981V40.8142C10.8507 40.8142 2.18201 32.1906 2.18201 21.4997H17.5734C19.5784 21.3816 21.2885 22.8582 21.4065 24.8665C21.5244 25.0437 21.5244 25.2209 21.4654 25.3981Z" fill="#CF4238"/>
<path fill-rule="evenodd" clip-rule="evenodd" d="M207.35 3.02617C207.564 3.30677 207.67 3.65579 207.647 4.00865C207.659 4.40641 207.495 4.78905 207.201 5.05521L207.647 6.77456H206.712L206.382 5.39695H205.319V6.77456H204.447V2.62036H206.287C206.684 2.58878 207.074 2.73771 207.35 3.02617ZM206.659 4.36091C206.752 4.26812 206.802 4.14024 206.797 4.0085V3.94442C206.819 3.80564 206.774 3.66456 206.675 3.56517C206.576 3.46577 206.435 3.42014 206.297 3.4425H205.308V4.51042H206.297C206.433 4.51322 206.564 4.45905 206.659 4.36091Z" fill="#276075"/>
<path fill-rule="evenodd" clip-rule="evenodd" d="M202.183 4.74552C202.183 6.8098 203.849 8.48323 205.904 8.48323C207.959 8.48323 209.625 6.8098 209.625 4.74552C209.625 2.68124 207.959 1.0078 205.904 1.0078C203.849 1.0078 202.183 2.68124 202.183 4.74552ZM203.185 3.61021C203.643 2.50917 204.716 1.79379 205.904 1.79811C207.518 1.80981 208.822 3.12431 208.828 4.74557C208.828 5.93867 208.112 7.01409 207.014 7.46967C205.916 7.92525 204.653 7.67111 203.815 6.82593C202.976 5.98075 202.728 4.71125 203.185 3.61021Z" fill="#455F72"/>
</svg>
