<svg width="10" height="10" viewBox="0 0 10 10" fill="none" xmlns="http://www.w3.org/2000/svg">
<path d="M9.16061 2.30172L9.16071 2.30158C9.44643 1.9202 9.44643 1.34262 9.16071 0.961241C9.00955 0.759477 8.78494 0.625 8.52696 0.625C8.26897 0.625 8.04437 0.759477 7.89321 0.961241L3.47483 6.85886L2.10679 5.03281C1.95563 4.83105 1.73103 4.69657 1.47304 4.69657C1.21506 4.69657 0.99045 4.83105 0.839292 5.03281C0.553569 5.41419 0.553569 5.99177 0.839292 6.37315L2.83631 9.03876C2.98865 9.2421 3.21498 9.375 3.47245 9.375C3.72985 9.375 3.95614 9.24216 4.10848 9.03889C4.10851 9.03885 4.10854 9.0388 4.10858 9.03876L9.16061 2.30172Z" fill="#B7C63A" stroke="#B7C63A" stroke-width="0.75"/>
</svg>
