<svg width="16" height="16" viewBox="0 0 16 16" fill="none" xmlns="http://www.w3.org/2000/svg">
<g opacity="0.8">
<path fill-rule="evenodd" clip-rule="evenodd" d="M15.3093 4.0464L12.3968 0.6688L11.8208 0H4.93973C4.016 0 3.2688 0.748267 3.2688 1.67253V3.79787H4.30453L4.304 2.07947C4.30507 1.55947 4.7232 1.13867 5.2416 1.13867L11.1264 1.13333V3.9216C11.1275 4.96 11.9664 5.80053 13.0059 5.80053H15.0427L14.9424 13.8437C14.9408 14.3611 14.5211 14.7787 14.0043 14.7829L5.16693 14.7787C4.69387 14.7787 4.31307 14.3147 4.31093 13.7429V13.0619H3.2736V14.0773C3.2736 15.0971 3.95733 15.9269 4.7968 15.9269L14.3067 15.9248C15.2304 15.9248 15.9797 15.1728 15.9797 14.2507V4.82507L15.3093 4.0464Z" fill="#2C2B2B" fill-opacity="0.8"/>
<path d="M10.7856 13.5802H0V3.27945H10.7856V13.5802ZM1.03627 12.5434H9.7472V4.31625H1.03627" fill="#08743B" fill-opacity="0.8"/>
<path d="M8.38934 11.1483H6.57334L5.33387 9.39682L4.03254 11.1483H2.20801L4.47147 8.30242L2.64374 5.81229H4.48641L5.34187 7.16589L6.25387 5.81229H8.12907L6.21281 8.30242L8.38934 11.1483Z" fill="#08743B" fill-opacity="0.8"/>
</g>
</svg>
