<svg width="16" height="16" viewBox="0 0 16 16" fill="none" xmlns="http://www.w3.org/2000/svg">
<path d="M0.825735 10.8463L0.825746 10.8462C0.841499 10.7042 0.905392 10.572 1.00678 10.4714C1.00685 10.4713 1.00692 10.4712 1.007 10.4712L10.5463 0.936835C10.5464 0.936747 10.5465 0.936659 10.5466 0.93657L10.5466 0.936541L10.635 1.02495C10.8004 0.858508 10.9971 0.726417 11.2138 0.63628C11.4305 0.546144 11.6628 0.499741 11.8975 0.499741C12.1322 0.499741 12.3645 0.546144 12.5812 0.63628C12.7978 0.726417 12.9946 0.858508 13.16 1.02495L0.825735 10.8463ZM0.825735 10.8463L0.375742 14.9312C0.37574 14.9312 0.375738 14.9312 0.375735 14.9313L0.825735 10.8463ZM5.15377 15.1692C5.29568 15.1534 5.42791 15.0896 5.52848 14.9882C5.52857 14.9881 5.52867 14.988 5.52877 14.9879L15.0881 5.45361C15.2662 5.27657 15.4076 5.06604 15.5041 4.83416C15.6005 4.60227 15.6502 4.3536 15.6502 4.10245C15.6502 3.8513 15.6005 3.60263 15.5041 3.37075C15.4076 3.13886 15.2662 2.92834 15.0881 2.75129L15.0878 2.75096L13.2486 0.936835C13.2485 0.936677 13.2483 0.936519 13.2482 0.936361L5.15377 15.1692ZM5.15377 15.1692L1.06882 15.6242L1.05498 15.6257V15.625H1.00041M5.15377 15.1692L1.00041 15.625M1.00041 15.625H0.999983V15.5L1.00041 15.625ZM4.8026 13.9505L1.70642 14.2935L2.04939 11.1973L11.4328 1.81891C11.4329 1.81882 11.433 1.81874 11.4331 1.81866C11.5575 1.69595 11.7252 1.62716 11.9 1.62716C12.0747 1.62716 12.2424 1.69594 12.3669 1.81862C12.367 1.81872 12.3671 1.81881 12.3672 1.81891L14.181 3.63277C14.1811 3.63286 14.1812 3.63295 14.1813 3.63304C14.304 3.75747 14.3728 3.92519 14.3728 4.09995C14.3728 4.27469 14.304 4.4424 14.1813 4.56683C14.1812 4.56693 14.1811 4.56703 14.181 4.56714L4.8026 13.9505Z" fill="#767676" stroke="#767676" stroke-width="0.25"/>
<path d="M13.2595 6.99499V6.99507L13.2641 6.99492C13.3481 6.99216 13.4308 6.97247 13.507 6.93703C13.5823 6.90202 13.6499 6.85235 13.7058 6.79094C13.8209 6.67405 13.8854 6.51658 13.8854 6.35249C13.8854 6.18737 13.8201 6.02896 13.7036 5.91186L13.7034 5.9116L10.089 2.29718C9.97243 2.17768 9.81325 2.10925 9.64632 2.10692C9.47908 2.10458 9.31776 2.16877 9.19785 2.28537C9.07794 2.40197 9.00927 2.56143 9.00693 2.72867C9.00459 2.89591 9.06878 3.05722 9.18538 3.17713L9.18537 3.17714L9.18661 3.17838L12.8216 6.81338L12.822 6.81374C12.9384 6.9292 13.0955 6.9943 13.2595 6.99499Z" fill="#767676" stroke="#767676" stroke-width="0.25"/>
<path d="M9.27141 6.02019L4.73178 10.5598L5.43889 11.2669L9.97851 6.7273L9.27141 6.02019Z" fill="#767676"/>
</svg>
